<svg xmlns="http://www.w3.org/2000/svg" viewBox="0 0 48 48"><g data-name="website coding and gear"><circle cx="5" cy="4" r="1"/><circle cx="9" cy="4" r="1"/><circle cx="13" cy="4" r="1"/><path d="M47,35H45.42a.61.61,0,0,1-.05-.12l1.12-1.12a1,1,0,0,0,.29-.71,1.05,1.05,0,0,0-.29-.71L44,29.86V4a4,4,0,0,0-4-4H4A4,4,0,0,0,0,4V39a1,1,0,0,0,1,1H28a1,1,0,0,0,1,1h1.58a.61.61,0,0,1,.05.12l-1.12,1.12a1,1,0,0,0-.29.71,1.05,1.05,0,0,0,.29.71l2.83,2.83a1,1,0,0,0,1.42,0l1.12-1.12.12.05V47a1,1,0,0,0,1,1h4a1,1,0,0,0,1-1V45.42l.12-.05,1.12,1.12a1,1,0,0,0,.71.29,1.05,1.05,0,0,0,.71-.29l2.83-2.83a1.05,1.05,0,0,0,.29-.71,1,1,0,0,0-.29-.71l-1.12-1.12a.61.61,0,0,1,.05-.12H47a1,1,0,0,0,1-1V36A1,1,0,0,0,47,35ZM2,4A2,2,0,0,1,4,2H40a2,2,0,0,1,2,2V6H2ZM2,38V8H42V29.76l-.88.87L41,30.58V29a1,1,0,0,0-1-1H36a1,1,0,0,0-1,1v1.58l-.12.05-1.12-1.12a1,1,0,0,0-.71-.29,1.05,1.05,0,0,0-.71.29l-2.83,2.83a1.05,1.05,0,0,0-.29.71,1,1,0,0,0,.29.71l1.12,1.12a.61.61,0,0,1-.05.12H29a1,1,0,0,0-1,1v2Zm44,1H44.71a1,1,0,0,0-1,.71,5.8,5.8,0,0,1-.47,1.14A1,1,0,0,0,43.45,42l.91.91L43,44.36,42,43.45a1,1,0,0,0-1.19-.17,5.8,5.8,0,0,1-1.14.47,1,1,0,0,0-.71,1V46H37V44.71a1,1,0,0,0-.71-1,5.8,5.8,0,0,1-1.14-.47,1,1,0,0,0-1.19.17l-.91.91L31.64,43l.91-.91a1,1,0,0,0,.17-1.19,5.8,5.8,0,0,1-.47-1.14,1,1,0,0,0-1-.71H30V37h1.29a1,1,0,0,0,1-.71,5.8,5.8,0,0,1,.47-1.14A1,1,0,0,0,32.55,34l-.91-.91,1.41-1.41.91.91a1,1,0,0,0,1.19.17,5.8,5.8,0,0,1,1.14-.47,1,1,0,0,0,.71-1V30h2v1.29a1,1,0,0,0,.71,1,5.8,5.8,0,0,1,1.14.47A1,1,0,0,0,42,32.55l.91-.91,1.41,1.41-.91.91a1,1,0,0,0-.17,1.19,5.8,5.8,0,0,1,.47,1.14,1,1,0,0,0,1,.71H46Z"/><path d="M38 34a4 4 0 1 0 4 4A4 4 0 0 0 38 34zm0 6a2 2 0 1 1 2-2A2 2 0 0 1 38 40zM17.71 18.29a1 1 0 0 0-1.42 0l-4 4a1 1 0 0 0 0 1.42l4 4a1 1 0 0 0 1.42 0 1 1 0 0 0 0-1.42L14.41 23l3.3-3.29A1 1 0 0 0 17.71 18.29zM31.71 22.29l-4-4a1 1 0 0 0-1.42 1.42L29.59 23l-3.3 3.29a1 1 0 0 0 0 1.42 1 1 0 0 0 1.42 0l4-4A1 1 0 0 0 31.71 22.29zM23.2 17A1 1 0 0 0 22 17.8l-2 10A1 1 0 0 0 20.8 29l.2 0a1 1 0 0 0 1-.8l2-10A1 1 0 0 0 23.2 17z"/></g></svg>